<?xml version="1.0" encoding="utf-8"?>
<svg version="1.1" id="Layer_1" xmlns="http://www.w3.org/2000/svg" xmlns:xlink="http://www.w3.org/1999/xlink" x="0px" y="0px" viewBox="0 0 1500 1125" style="enable-background:new 0 0 1500 1125;" xml:space="preserve">
    <style type="text/css">
        .st0 {
            fill: none;
            stroke: #0096E4;
            stroke-width: 0.5;
            stroke-dasharray: 950;
            stroke-dashoffset: 80;
            opacity: 0.25;

            animation: st0-anim 15s linear forwards infinite;
            transform-origin: center;
            transform: scale(1, 1);
        }

        @keyframes st0-anim {
            25% {
                transform: scale(1.05, 1.05);
            }
            50% {
                stroke-dasharray: 50;
                transform: scale(1, 1);
            }
            75% {
                stroke-dashoffset: 500;
                transform: scale(1.05, 1.05);
            }
        }

        .st1 {
            fill: none;
            stroke: #FF9B00;
            stroke-width: 1;
            stroke-dasharray: 280;
            stroke-dashoffset: 2000;
            opacity: 0.25;

            animation: st1-anim 22s linear forwards infinite;
        }

        @keyframes st1-anim {
            50% {
                stroke-dasharray: 1400;
            }
            75% {
                stroke-dashoffset: 400;
            }
        }
    </style>
    <path class="st0" d="M467.68314,600.89691h-348l-39-225h372L467.68314,600.89691z M1043.68311,375.89691l-16,233h349l34-233
	H1043.68311z M640.68317,389.89691h86v-38h-86V389.89691z M854.68317,351.89691h-86v38h90L854.68317,351.89691z
	 M768.68317,471.89691h90v-38h-90V471.89691z M635.68317,471.89691h91v-38h-91V471.89691z M768.68317,562.89691h93l-3-38h-90
	V562.89691z M630.68317,562.89691h96v-38h-91L630.68317,562.89691z M640.68317,304.89691h86v-36h-82L640.68317,304.89691z
	 M853.68317,304.89691l-10-36h-78l3,36H853.68317z M723.68317,613.89691h-93v42h93V613.89691z M768.68317,655.89691h97l-4-42h-93
	V655.89691z M768.68317,756.89691h100l-3-44h-97V756.89691z M625.68317,756.89691h98l3-44h-101V756.89691z M768.68317,814.89691v46
	h54l1,53h48l-6-99H768.68317z M621.68317,913.89691h46l4-53h52v-46h-98L621.68317,913.89691z M204.68314,914.89691l97,3l7-99h-96
	L204.68314,914.89691z M513.68317,917.89691l3-99h-45.00003l-7,99H513.68317z M1018.68317,818.89691h-43v99h48L1018.68317,818.89691
	z M1181.68311,821.89691l5,100h96l-5-100H1181.68311z M455.68314,1035.89685h130.00003v-36.99994H459.68314L455.68314,1035.89685z
	 M906.68317,1035.89685h125.99994v-36.99994H906.68317V1035.89685z M702.68317,134.89691l-3-66.00001h-74l4,66.00001H702.68317z
	 M871.68317,68.8969h-73l-3,66.00001h72L871.68317,68.8969z M926.68317,122.8969h-27l-3,21.00001h28L926.68317,122.8969z
	 M600.68317,143.89691l-4-23.00001h-27l3,23.00001H600.68317z M702.68317,182.89691h-130l6,52h127L702.68317,182.89691z
	 M922.68317,188.89691l-127-3v52h120L922.68317,188.89691z" />
    <path class="st1" d="M467.68314,600.89691h-348l-39-225h372L467.68314,600.89691z M1043.68311,375.89691l-16,233h349l34-233
	H1043.68311z M640.68317,389.89691h86v-38h-86V389.89691z M854.68317,351.89691h-86v38h90L854.68317,351.89691z
	 M768.68317,471.89691h90v-38h-90V471.89691z M635.68317,471.89691h91v-38h-91V471.89691z M768.68317,562.89691h93l-3-38h-90
	V562.89691z M630.68317,562.89691h96v-38h-91L630.68317,562.89691z M640.68317,304.89691h86v-36h-82L640.68317,304.89691z
	 M853.68317,304.89691l-10-36h-78l3,36H853.68317z M723.68317,613.89691h-93v42h93V613.89691z M768.68317,655.89691h97l-4-42h-93
	V655.89691z M768.68317,756.89691h100l-3-44h-97V756.89691z M625.68317,756.89691h98l3-44h-101V756.89691z M768.68317,814.89691v46
	h54l1,53h48l-6-99H768.68317z M621.68317,913.89691h46l4-53h52v-46h-98L621.68317,913.89691z M204.68314,914.89691l97,3l7-99h-96
	L204.68314,914.89691z M513.68317,917.89691l3-99h-45.00003l-7,99H513.68317z M1018.68317,818.89691h-43v99h48L1018.68317,818.89691
	z M1181.68311,821.89691l5,100h96l-5-100H1181.68311z M455.68314,1035.89685h130.00003v-36.99994H459.68314L455.68314,1035.89685z
	 M906.68317,1035.89685h125.99994v-36.99994H906.68317V1035.89685z M702.68317,134.89691l-3-66.00001h-74l4,66.00001H702.68317z
	 M871.68317,68.8969h-73l-3,66.00001h72L871.68317,68.8969z M926.68317,122.8969h-27l-3,21.00001h28L926.68317,122.8969z
	 M600.68317,143.89691l-4-23.00001h-27l3,23.00001H600.68317z M702.68317,182.89691h-130l6,52h127L702.68317,182.89691z
	 M922.68317,188.89691l-127-3v52h120L922.68317,188.89691z" />
</svg>